<svg clip-rule="evenodd" fill-rule="evenodd" stroke-linejoin="round" stroke-miterlimit="2" viewBox="0 0 1000 1000" xmlns="http://www.w3.org/2000/svg"><path d="m722.985 769.376c-65.146 34.621-143.569 54.829-227.927 54.829-225.557 0-408.681-144.474-408.681-322.424 0-177.951 183.124-322.425 408.681-322.425s408.681 144.474 408.681 322.425c0 66.589-25.642 128.49-69.541 179.872l47.688 59.001c6.346 7.852 9.808 17.642 9.808 27.738v32.76z" fill="#92dbff"/><path d="m80.9 26.6c-8.3-6.2-19.4-9.6-31.1-9.6s-22.8 3.4-31.2 9.6c-8.5 6.4-13.2 14.9-13.2 23.9 0 6.7 2.6 13.2 7.5 18.7-1.1 2.3-2.9 4.2-4.9 5-1.5.6-2.4 1.7-2.5 3-.1 1.4.6 2.8 2.1 3.8 3.1 2 9.8 2.7 18.6-2 7.1 3.3 15.2 5.1 23.6 5.1 11.8 0 22.8-3.4 31.2-9.6 8.5-6.3 13.2-14.8 13.2-23.9s-4.7-17.6-13.3-24zm-31.1 53.4c-8.2 0-16-1.8-22.7-5.1l-1-.5-.9.5c-8 4.5-13.3 3.7-15.1 2.8 3.2-1.5 5.8-4.6 7.1-8.2l.4-1.2-.9-.9c-4.8-5-7.3-10.8-7.3-16.9 0-16.3 18.1-29.5 40.3-29.5s40.3 13.2 40.3 29.5c.1 16.3-18 29.5-40.2 29.5z" fill="#0070a8" fill-rule="nonzero" transform="matrix(-9.6954 0 0 10.2259 982.831 -16.9178)"/><g stroke-width="1.25496"><circle cx="269.37765928" cy="499.03563744" fill="#0070a8" r="102.51266256"/><circle cx="496.20865928" cy="499.03563744" fill="#8b0000" r="102.51266256"/><circle cx="720.06065928" cy="499.03563744" fill="#ff8c00" r="102.51266256"/></g></svg>